<svg width="660" height="151" viewBox="0 0 660 151" fill="none" xmlns="http://www.w3.org/2000/svg">
<path d="M123.659 48H106.045C105.004 42.9337 103.181 38.483 100.577 34.6477C98.0199 30.8125 94.8949 27.5928 91.2017 24.9886C87.5559 22.3371 83.5076 20.3485 79.0568 19.0227C74.6061 17.697 69.9659 17.0341 65.1364 17.0341C56.3295 17.0341 48.3513 19.2595 41.2017 23.7102C34.0994 28.161 28.4413 34.7188 24.2273 43.3835C20.0606 52.0483 17.9773 62.678 17.9773 75.2727C17.9773 87.8674 20.0606 98.4972 24.2273 107.162C28.4413 115.827 34.0994 122.384 41.2017 126.835C48.3513 131.286 56.3295 133.511 65.1364 133.511C69.9659 133.511 74.6061 132.848 79.0568 131.523C83.5076 130.197 87.5559 128.232 91.2017 125.628C94.8949 122.976 98.0199 119.733 100.577 115.898C103.181 112.015 105.004 107.564 106.045 102.545H123.659C122.333 109.979 119.919 116.632 116.415 122.503C112.911 128.374 108.555 133.369 103.347 137.489C98.1383 141.561 92.2907 144.662 85.804 146.793C79.3646 148.923 72.4754 149.989 65.1364 149.989C52.7311 149.989 41.6989 146.958 32.0398 140.898C22.3807 134.837 14.7813 126.22 9.24148 115.045C3.70171 103.871 0.931819 90.6136 0.931819 75.2727C0.931819 59.9318 3.70171 46.6742 9.24148 35.5C14.7813 24.3258 22.3807 15.7083 32.0398 9.64773C41.6989 3.58712 52.7311 0.556813 65.1364 0.556813C72.4754 0.556813 79.3646 1.62215 85.804 3.75284C92.2907 5.88352 98.1383 9.00852 103.347 13.1278C108.555 17.1998 112.911 22.1714 116.415 28.0426C119.919 33.8665 122.333 40.5189 123.659 48ZM195.587 150.273C185.076 150.273 176.009 147.953 168.386 143.312C160.81 138.625 154.962 132.091 150.843 123.71C146.771 115.282 144.735 105.481 144.735 94.3068C144.735 83.1326 146.771 73.2841 150.843 64.7614C154.962 56.1913 160.692 49.5152 168.031 44.733C175.417 39.9034 184.034 37.4886 193.883 37.4886C199.565 37.4886 205.175 38.4356 210.715 40.3295C216.255 42.2235 221.298 45.3011 225.843 49.5625C230.388 53.7765 234.011 59.3636 236.71 66.3239C239.408 73.2841 240.758 81.8542 240.758 92.0341V99.1364H156.667V84.6477H223.712C223.712 78.4924 222.481 73 220.019 68.1705C217.604 63.3409 214.148 59.5294 209.65 56.7358C205.199 53.9422 199.943 52.5455 193.883 52.5455C187.207 52.5455 181.43 54.2026 176.553 57.517C171.724 60.7841 168.007 65.0455 165.403 70.3011C162.799 75.5568 161.496 81.1913 161.496 87.2045V96.8636C161.496 105.102 162.917 112.086 165.758 117.815C168.646 123.497 172.647 127.83 177.761 130.812C182.874 133.748 188.817 135.216 195.587 135.216C199.991 135.216 203.968 134.6 207.519 133.369C211.118 132.091 214.219 130.197 216.823 127.688C219.427 125.131 221.44 121.958 222.86 118.17L239.053 122.716C237.349 128.208 234.484 133.038 230.46 137.205C226.435 141.324 221.463 144.544 215.545 146.864C209.626 149.136 202.974 150.273 195.587 150.273ZM307.448 150.273C298.357 150.273 290.332 147.976 283.371 143.384C276.411 138.743 270.966 132.209 267.036 123.781C263.106 115.306 261.141 105.292 261.141 93.7386C261.141 82.2803 263.106 72.3371 267.036 63.9091C270.966 55.4811 276.435 48.9706 283.442 44.3778C290.45 39.785 298.547 37.4886 307.732 37.4886C314.835 37.4886 320.445 38.6723 324.565 41.0398C328.731 43.3598 331.904 46.0114 334.082 48.9943C336.307 51.9299 338.035 54.3447 339.266 56.2386H340.687V2.54545H357.448V148H341.255V131.239H339.266C338.035 133.227 336.283 135.737 334.011 138.767C331.738 141.75 328.495 144.425 324.281 146.793C320.067 149.113 314.456 150.273 307.448 150.273ZM309.721 135.216C316.444 135.216 322.126 133.464 326.766 129.96C331.406 126.409 334.934 121.509 337.349 115.259C339.763 108.961 340.971 101.693 340.971 93.4545C340.971 85.3106 339.787 78.1847 337.42 72.0767C335.052 65.9214 331.549 61.1392 326.908 57.7301C322.268 54.2737 316.539 52.5455 309.721 52.5455C302.619 52.5455 296.7 54.3684 291.965 58.0142C287.278 61.6127 283.75 66.5133 281.383 72.7159C279.063 78.8712 277.903 85.7841 277.903 93.4545C277.903 101.22 279.086 108.275 281.454 114.619C283.869 120.917 287.42 125.936 292.107 129.676C296.842 133.369 302.713 135.216 309.721 135.216ZM390.474 148V38.9091H406.667V55.3864H407.803C409.792 49.9886 413.39 45.6089 418.599 42.2472C423.807 38.8854 429.678 37.2045 436.212 37.2045C437.443 37.2045 438.982 37.2282 440.829 37.2756C442.675 37.3229 444.072 37.3939 445.019 37.4886V54.5341C444.451 54.392 443.149 54.179 441.113 53.8949C439.124 53.5634 437.017 53.3977 434.792 53.3977C429.489 53.3977 424.754 54.5104 420.587 56.7358C416.468 58.9138 413.201 61.9441 410.786 65.8267C408.419 69.6619 407.235 74.0417 407.235 78.9659V148H390.474ZM496.99 150.557C490.077 150.557 483.804 149.255 478.169 146.651C472.535 143.999 468.06 140.188 464.746 135.216C461.431 130.197 459.774 124.136 459.774 117.034C459.774 110.784 461.005 105.718 463.467 101.835C465.929 97.9053 469.22 94.8276 473.339 92.6023C477.459 90.3769 482.004 88.7197 486.976 87.6307C491.995 86.4943 497.037 85.5947 502.104 84.9318C508.732 84.0795 514.107 83.4403 518.226 83.0142C522.393 82.5407 525.423 81.7595 527.317 80.6705C529.258 79.5814 530.229 77.6875 530.229 74.9886V74.4205C530.229 67.4129 528.311 61.9678 524.476 58.0852C520.688 54.2027 514.935 52.2614 507.217 52.2614C499.215 52.2614 492.942 54.0133 488.396 57.517C483.851 61.0208 480.655 64.7614 478.808 68.7386L462.899 63.0568C465.74 56.428 469.528 51.267 474.263 47.5739C479.045 43.8333 484.253 41.2292 489.888 39.7614C495.57 38.2462 501.157 37.4886 506.649 37.4886C510.153 37.4886 514.178 37.9148 518.723 38.767C523.316 39.572 527.743 41.2528 532.004 43.8097C536.313 46.3665 539.888 50.2254 542.729 55.3864C545.57 60.5473 546.99 67.4602 546.99 76.125V148H530.229V133.227H529.376C528.24 135.595 526.346 138.128 523.695 140.827C521.043 143.526 517.516 145.822 513.112 147.716C508.709 149.61 503.335 150.557 496.99 150.557ZM499.547 135.5C506.176 135.5 511.763 134.198 516.308 131.594C520.901 128.99 524.357 125.628 526.678 121.509C529.045 117.389 530.229 113.057 530.229 108.511V93.1705C529.518 94.0227 527.956 94.804 525.541 95.5142C523.174 96.1771 520.428 96.7689 517.303 97.2898C514.225 97.7633 511.218 98.1894 508.283 98.5682C505.394 98.8996 503.051 99.1837 501.251 99.4205C496.895 99.9886 492.823 100.912 489.036 102.19C485.295 103.421 482.265 105.292 479.945 107.801C477.672 110.263 476.536 113.625 476.536 117.886C476.536 123.71 478.69 128.114 482.999 131.097C487.355 134.032 492.871 135.5 499.547 135.5ZM574.458 148V135.216L636.39 55.6705V54.5341H576.447V38.9091H657.981V52.2614L597.754 131.239V132.375H659.969V148H574.458Z" fill="white"/>
</svg>
