<svg width="340" height="133" viewBox="0 0 340 133" fill="none" xmlns="http://www.w3.org/2000/svg">
<path fill-rule="evenodd" clip-rule="evenodd" d="M340 0H0V133H340V0ZM264.043 80.2983V83.1748H283.284V79.6592H269.285V79.4033L282.836 61.6338V58.6294H264.491V62.145H277.978V62.4009L264.043 80.2983ZM244.137 83.4746C243.523 83.3301 242.937 83.1289 242.378 82.8711C241.111 82.2744 240.104 81.417 239.358 80.2983C238.613 79.1689 238.24 77.8052 238.24 76.2075C238.24 75.9468 238.249 75.6953 238.268 75.4531C238.279 75.3135 238.293 75.1768 238.31 75.043C238.329 74.9004 238.351 74.7617 238.376 74.6265C238.427 74.3613 238.491 74.1094 238.568 73.8706C238.698 73.4727 238.865 73.1118 239.071 72.7876C239.392 72.2739 239.777 71.8252 240.224 71.4409C240.547 71.1636 240.903 70.9199 241.292 70.71C241.654 70.5146 242.03 70.3389 242.421 70.1826C242.766 70.0444 243.122 69.9214 243.489 69.8135L243.687 69.7573L243.849 69.7139C243.955 69.686 244.062 69.6597 244.17 69.6343L244.28 69.6089L244.36 69.5913C245.072 69.4302 245.786 69.29 246.501 69.1714C246.656 69.1455 246.811 69.1211 246.966 69.0977C247.076 69.0806 247.187 69.064 247.298 69.0483L247.764 68.9844C249.255 68.7925 250.464 68.6489 251.392 68.5527C252.329 68.4463 253.011 68.2705 253.437 68.0254C253.874 67.7803 254.092 67.3545 254.092 66.7471V66.6191C254.092 65.0425 253.661 63.8174 252.798 62.9438C251.945 62.0703 250.651 61.6333 248.915 61.6333C247.114 61.6333 245.703 62.0278 244.68 62.8159C244.093 63.2686 243.606 63.7383 243.219 64.2261C242.932 64.5879 242.7 64.9595 242.522 65.3408L238.943 64.0625C239.582 62.5708 240.435 61.4097 241.5 60.5786C242.576 59.7373 243.748 59.1514 245.015 58.8208C246.294 58.48 247.551 58.3096 248.787 58.3096C249.575 58.3096 250.48 58.4053 251.503 58.5972C252.537 58.7783 253.533 59.1567 254.492 59.7319C255.093 60.0889 255.631 60.5581 256.105 61.1406C256.196 61.2529 256.286 61.3696 256.372 61.4902C256.407 61.5381 256.441 61.5864 256.475 61.6357L256.553 61.7529C256.675 61.9385 256.792 62.1328 256.904 62.3364C257.544 63.4976 257.863 65.0532 257.863 67.0029V83.1748H254.092V79.8506H253.9C253.777 80.1069 253.615 80.3721 253.413 80.646C253.195 80.9409 252.931 81.2456 252.622 81.5605C252.405 81.7817 252.162 81.9907 251.892 82.188C251.421 82.5322 250.871 82.8398 250.241 83.1108C249.25 83.5366 248.041 83.75 246.613 83.75C245.743 83.75 244.917 83.6582 244.137 83.4746ZM247.188 80.3623C248.68 80.3623 249.937 80.0693 250.96 79.4834C251.08 79.4155 251.196 79.3452 251.309 79.2729C251.621 79.0723 251.907 78.8545 252.167 78.6187C252.337 78.4644 252.496 78.3027 252.644 78.1338C252.892 77.8486 253.108 77.542 253.293 77.2139C253.578 76.7188 253.786 76.2095 253.919 75.6865C254.034 75.2314 254.092 74.7656 254.092 74.2896V70.8379C253.932 71.0298 253.581 71.2056 253.037 71.3652C252.505 71.5146 251.887 71.6475 251.184 71.7646C250.491 71.8716 249.814 71.9673 249.154 72.0522L248.53 72.125L248.185 72.167C247.956 72.1948 247.752 72.2207 247.572 72.2441C246.592 72.3721 245.676 72.5796 244.824 72.8677C243.982 73.1445 243.3 73.5654 242.778 74.1299C242.267 74.6841 242.011 75.4404 242.011 76.3989C242.011 77.7095 242.496 78.7002 243.465 79.3716C244.445 80.0317 245.687 80.3623 247.188 80.3623ZM222.647 58.6289V83.1748H226.418V67.6421C226.418 66.5342 226.685 65.5483 227.217 64.6855C227.761 63.812 228.496 63.1304 229.422 62.6401C230.36 62.1396 231.425 61.8892 232.619 61.8892C233.119 61.8892 233.593 61.9263 234.041 62.001C234.499 62.0649 234.792 62.1128 234.92 62.1445V58.3096C234.846 58.3022 234.76 58.2954 234.662 58.2896C234.477 58.2778 234.249 58.2686 233.977 58.2617C233.724 58.2554 233.496 58.2505 233.294 58.248L232.938 58.2456C231.468 58.2456 230.147 58.624 228.975 59.3804C227.803 60.1367 226.994 61.1221 226.546 62.3364H226.291V58.6289H222.647ZM203.966 83.6865C201.921 83.6865 200.115 83.1699 198.549 82.1362C196.983 81.0923 195.758 79.6221 194.874 77.7256C193.989 75.8188 193.547 73.5654 193.547 70.9663C193.547 68.3882 193.989 66.1509 194.874 64.2544C195.758 62.3584 196.988 60.8936 198.565 59.8599C200.142 58.8267 201.963 58.3101 204.03 58.3101C205.628 58.3101 206.891 58.5762 207.817 59.1089C208.755 59.6309 209.469 60.2275 209.959 60.8989C210.459 61.5591 210.849 62.1025 211.125 62.5288H211.445V50.4478H215.216V83.1748H211.573V79.4038H211.125C210.849 79.8511 210.454 80.416 209.943 81.0977C209.432 81.7686 208.702 82.3706 207.754 82.9033C206.806 83.4253 205.543 83.6865 203.966 83.6865ZM204.478 80.2988C205.991 80.2988 207.269 79.9043 208.313 79.1162C209.357 78.3169 210.151 77.2144 210.694 75.8081C211.237 74.3911 211.509 72.7559 211.509 70.9023C211.509 70.1104 211.459 69.3608 211.359 68.6543C211.229 67.7266 211.012 66.8726 210.71 66.0923C210.177 64.7075 209.389 63.6313 208.345 62.8643C207.301 62.0864 206.012 61.6978 204.478 61.6978C202.88 61.6978 201.548 62.1079 200.483 62.9282C199.428 63.7378 198.634 64.8403 198.102 66.2363C197.58 67.6211 197.319 69.1763 197.319 70.9023C197.319 72.6494 197.585 74.2368 198.118 75.6646C198.661 77.0811 199.46 78.2104 200.515 79.0522C201.58 79.8833 202.901 80.2988 204.478 80.2988ZM172.677 82.1201C174.393 83.1641 176.433 83.686 178.798 83.686C179.606 83.686 180.376 83.6255 181.107 83.5044C181.877 83.3765 182.604 83.1812 183.288 82.9189C184.62 82.397 185.738 81.6724 186.644 80.7456C187.549 79.8081 188.194 78.7217 188.578 77.4858L184.934 76.4629C184.614 77.3154 184.162 78.0288 183.576 78.6045C183.452 78.7241 183.322 78.8374 183.188 78.9448C183.092 79.021 182.994 79.0942 182.894 79.1641C182.807 79.2241 182.719 79.2817 182.629 79.3369C182.276 79.5547 181.894 79.7368 181.482 79.8828C181.109 80.0122 180.715 80.1113 180.301 80.1802C179.827 80.2588 179.326 80.2983 178.798 80.2983C177.274 80.2983 175.938 79.9678 174.787 79.3076C173.636 78.6362 172.736 77.6616 172.086 76.3833C171.506 75.2144 171.19 73.813 171.136 72.1802H188.961V70.5825C188.961 68.292 188.657 66.3638 188.05 64.7974C187.443 63.2314 186.628 61.9741 185.605 61.0264C184.583 60.0674 183.448 59.375 182.202 58.9487C180.955 58.5225 179.692 58.3096 178.414 58.3096C176.198 58.3096 174.259 58.853 172.598 59.9395C170.946 61.0156 169.657 62.5176 168.73 64.4458C167.814 66.3638 167.356 68.5796 167.356 71.0938C167.356 73.6079 167.814 75.813 168.73 77.7095C169.657 79.5952 170.973 81.0654 172.677 82.1201ZM171.146 68.9204H185.126C185.126 67.9604 184.993 67.0718 184.727 66.2549C184.609 65.8936 184.465 65.5464 184.295 65.2129C183.751 64.1265 182.974 63.2686 181.962 62.6401C180.96 62.0117 179.778 61.6973 178.414 61.6973C176.912 61.6973 175.612 62.0703 174.515 62.8159C173.428 63.5513 172.592 64.5098 172.006 65.6924C171.504 66.7061 171.217 67.7817 171.146 68.9204ZM162.614 60.6748H158.65C158.416 59.5347 158.006 58.5332 157.42 57.6704C156.845 56.8076 156.142 56.083 155.311 55.4971C155.063 55.3169 154.807 55.1509 154.543 54.998C154.387 54.9072 154.228 54.8218 154.066 54.7407C153.594 54.5054 153.099 54.3101 152.578 54.1548C151.577 53.8564 150.533 53.7075 149.446 53.7075C147.464 53.7075 145.669 54.208 144.061 55.2095C142.463 56.2109 141.189 57.6865 140.242 59.6362C139.304 61.5854 138.835 63.9771 138.835 66.811C138.835 69.645 139.304 72.0366 140.242 73.9863C141.189 75.9355 142.463 77.4111 144.061 78.4126C145.669 79.4141 147.464 79.9146 149.446 79.9146C150.058 79.9146 150.656 79.8672 151.241 79.7725C151.695 79.6992 152.141 79.5977 152.578 79.4673C153.58 79.1689 154.49 78.7271 155.311 78.1411C156.142 77.5444 156.845 76.8145 157.42 75.9517C157.701 75.5327 157.941 75.085 158.142 74.6074C158.359 74.0884 158.528 73.5352 158.65 72.9473H162.614C162.315 74.6201 161.772 76.1167 160.984 77.438C160.195 78.7588 159.215 79.8828 158.043 80.8096C156.872 81.7261 155.556 82.4238 154.096 82.9028C152.647 83.3823 151.097 83.6221 149.446 83.6221C146.655 83.6221 144.172 82.9404 142 81.5767C139.826 80.2129 138.116 78.2739 136.87 75.7598C135.623 73.2456 135 70.2627 135 66.811C135 63.3594 135.623 60.3765 136.87 57.8623C138.116 55.3481 139.826 53.4092 142 52.0454C144.172 50.6816 146.655 50 149.446 50C151.097 50 152.647 50.2397 154.096 50.7192C154.421 50.8257 154.738 50.9434 155.048 51.0723C156.134 51.5225 157.132 52.1079 158.043 52.8286C158.644 53.2983 159.194 53.8208 159.694 54.397C160.17 54.9448 160.6 55.5405 160.984 56.1841C161.772 57.4946 162.315 58.9917 162.614 60.6748ZM95.9204 46.3135C96.2773 44.8848 95.4087 43.437 93.98 43.0796C92.5513 42.7227 91.1035 43.5913 90.7461 45.02L80.0796 87.6865C79.7227 89.1152 80.5913 90.563 82.02 90.9204C83.4487 91.2773 84.8965 90.4087 85.2539 88.98L95.9204 46.3135ZM76.4756 58.293C77.5576 57.2939 77.625 55.6069 76.626 54.5244C75.6274 53.4424 73.9399 53.375 72.8579 54.374L62.1914 64.2202C61.9854 64.4102 61.813 64.6294 61.6777 64.8687C61.4712 65.2349 61.3521 65.6484 61.3354 66.0767C61.3218 66.4336 61.3799 66.7861 61.5029 67.1147C61.6235 67.4375 61.8066 67.7368 62.0459 67.9941L72.7124 79.4814C73.7148 80.5605 75.4019 80.623 76.481 79.6206C77.5605 78.6187 77.623 76.9312 76.6206 75.8521L67.7739 66.3247L76.4756 58.293ZM103.142 54.374C102.06 53.375 100.373 53.4424 99.374 54.5244C98.375 55.6069 98.4424 57.2939 99.5244 58.293L108.226 66.3247L99.3794 75.8521C98.377 76.9312 98.4395 78.6187 99.5186 79.6206C100.598 80.623 102.285 80.5605 103.288 79.4814L113.954 67.9941C114.437 67.4746 114.692 66.7847 114.665 66.0767C114.637 65.3687 114.33 64.7007 113.809 64.2202L103.142 54.374Z" fill="#111111"/>
</svg>
